<svg height="145" width="610" xmlns="http://www.w3.org/2000/svg" xmlns:xlink="http://www.w3.org/1999/xlink"><clipPath id="a"><path d="m76 2v46h-22v23h-18.419263c-.07818.665694-.141485 1.332869-.205737 2-1.151162 12.530963 1.036422 24.087546 6.0625 33.96875l1.6875 3.03125c1.011403 1.81678 2.191241 3.52297 3.4375 5.1875 1.244725 1.66248 1.685716 2.58262 2.46875 3.6875 13.288661 14.93583 33.098223 22.125 55.96875 22.125 50.64836 0 93.63299-22.43799 112.65625-72.84375 13.49677 1.38497 26.44343-2.075892 32.34375-13.59375-9.39863-5.423665-21.47837-3.685274-28.4375-.1875l18.4375-52.375-72 46h-23v-46z"/></clipPath><path d="m467.82 113.24092-.0422-25.557862-.12687-45.65718m25.85406 19.67617-25.72712 25.98101 25.85407 25.642492m-172.34647-25.303977c.12417-5.480933-1.46904-11.08143-4.69689-15.613994-4.65126-6.53132-12.17919-10.9904-20.43783-11.08636-.55059 0-1.09558 0-1.65026.04225-3.26481.2017-6.42662.655378-9.22453 1.819517-18.40057 7.656-21.66082 33.207962-6.13558 44.768575 13.44474 10.01139 33.00155 5.92365 39.77549-9.351466 1.43144-3.227887 2.3696-7.297132 2.3696-10.578554v-46.207236m124.15153 22.553546c-3.80993-2.4618-8.25456-3.349942-12.65199-3.342833-.47683 0-.96708.02383-1.39637.04225-12.71288.54677-24.50001 9.530355-24.50001 26.95424 0 20.6003 22.08809 31.71844 38.59069 22.00346m74.13473-2.24266c13.00207-11.1375 39.05614-33.47058 39.05614-33.47058s-.94989-1.797148-1.56563-2.623492c-5.25739-7.055515-13.28929-10.5786-21.74957-10.578627-20.90871 0-36.58155 27.0365-15.74094 46.6727 1.44301 1.35961 3.42523 2.42453 5.62781 3.34283 7.64747 3.18836 18.11655 2.92685 23.78066-1.26943m-185.00252-48.661434c-.59271.01083-1.18194.07366-1.7772.08463-15.85475.291353-27.28615 16.759178-23.82298 32.031962 3.37478 14.882963 19.63403 23.695883 33.68222 18.829883 16.35859-4.28927 23.03061-24.888756 14.04836-38.802254-4.9126-7.60964-13.23925-12.3132-22.1304-12.14422zm240.72631.507772c-6.42012.0172-12.67273 2.265815-17.30656 6.601038-7.30767 6.03132-8.89448 13.64741-8.80139 23.2729l.21157 21.876522" fill="none" stroke="#394d54" stroke-linecap="round" stroke-linejoin="round" stroke-width="10.5"/><path d="m147.4876 45.732h22.866v23.37473h11.56177c5.33905 0 10.83073-.95117 15.887-2.66444 2.48448-.84244 5.27317-2.01479 7.72392-3.4892-3.22785-4.21436-4.87579-9.53574-5.36101-14.78106-.65874-7.13426.78032-16.42042 5.60897-22.004216l2.40362-2.780117 2.8642 2.302393c7.21138 5.79374 13.27612 13.88934 14.3451 23.11819 8.68312-2.55411 18.87759-1.95 26.53135 2.46735l3.14002 1.81182-1.65276 3.2257c-6.47289 12.633374-20.00501 16.546746-33.23507 15.854261-19.79715 49.308389-62.89781 72.652589-115.15715 72.652589-26.998899 0-51.769845-10.09272-65.875552-34.04693-.827018-1.48798-1.535233-3.0439-2.286326-4.57212-4.768134-10.544203-6.351799-22.095263-5.277456-33.636683l.32241-3.457072h19.552937v-23.37473h22.866v-22.866h45.732v-22.866h27.43967v45.732" fill="#394d54"/><g clip-path="url(#a)"><g id="b"><g id="c" transform="translate(0 -22.866)"><path d="m123.85901 3.8110794h19.81751v19.8169706h-19.81751z" fill="#00acd3"/><path d="m123.85901 26.676485h19.81751v19.818043h-19.81751z" fill="#20c2ef"/><path id="d" d="m126.29235 21.976904v-16.5157492m2.97185 16.5157492v-16.5157492m3.00184 16.5157492v-16.5157492m3.00344 16.5157492v-16.5157492m3.00292 16.5157492v-16.5157492m2.97131 16.5157492v-16.5157492" stroke="#394d54" stroke-width="1.56"/><use transform="translate(0 22.866)" xlink:href="#d"/></g><use transform="matrix(1 0 0 -1 22.866 4.572651)" xlink:href="#c"/></g><use transform="translate(-91.464 45.732)" xlink:href="#b"/><use transform="translate(-45.732 45.732)" xlink:href="#b"/><use transform="translate(0 45.732)" xlink:href="#b"/></g><path clip-path="url(#a)" d="m221.57014 54.379649c1.53332-11.915247-7.38383-21.274779-12.91407-25.71836-6.37269 7.367765-7.36295 26.677556 2.63498 34.807431-5.57952 4.956117-17.33731 9.448435-29.37574 9.448435h-147.91531c-1.170745 12.567029 0 73.082845 0 73.082845h217l-.98657-91.424c-9.39863-5.423665-21.48419-3.694326-28.44332-.196552" fill="#17b5eb"/><path clip-path="url(#a)" d="m34 89v57h217v-57" fill-opacity=".17"/><path clip-path="url(#a)" d="m111.23736 140.88997c-13.539619-6.42517-20.971653-15.15916-25.106749-24.69435l-41.130611 1.80438 21 28z" fill="#d4edf1"/><path clip-path="url(#a)" d="m222.5 53.9375v.03125c-20.86119 26.889144-50.78312 50.37872-82.90625 62.71875-28.65478 11.00767-53.638381 11.06039-70.875 2.21875-1.85607-1.04832-3.675701-2.21152-5.5-3.3125-12.636653-8.832-19.754476-23.441442-19.15625-42.6875h-10.0625v73.09375h217v-96h-25z" fill-opacity=".085"/><path d="m45.625 117.03125c14.165153.77531 29.28245.91433 42.46875-3.21875" fill="none" stroke="#394d54" stroke-linecap="round" stroke-width="3.4"/><path d="m102.17024 106.95926c0 3.01898-2.447529 5.46651-5.466508 5.46651-3.019514 0-5.467581-2.44753-5.467581-5.46651 0-3.01897 2.448067-5.46758 5.467581-5.46758 3.018979 0 5.466508 2.44861 5.466508 5.46758z" fill="#d4edf1"/><g fill="#394d54"><path d="m98.121372 103.30778c-.477188.27582-.800133.79264-.800133 1.3839 0 .88261.715514 1.59706 1.598125 1.59706.604653 0 1.130046-.3358 1.401576-.83174.19173.4622.29831.96991.29831 1.50226 0 2.16208-1.752907 3.91498-3.915518 3.91498-2.162075 0-3.91605-1.7529-3.91605-3.91498 0-2.16314 1.753975-3.91658 3.91605-3.91658.500218 0 .977406.0943 1.41764.2651z"/><path d="m0 90.162343h254.32743c-5.53774-1.404786-17.521-3.302293-15.54477-10.559732-10.06915 11.651749-34.35274 8.174326-40.4812 2.428786-6.82471 9.89831-46.55451 6.135967-49.32553-1.575096-8.55565 10.04077-35.06718 10.04077-43.62336 0-2.77209 7.711063-42.501357 11.473406-49.326595 1.575096-6.128469 5.74554-30.409908 9.222963-40.480134-2.428786 1.976234 7.257439-10.0070293 9.154946-15.545841 10.559732"/></g></svg>